<mxfile host="app.diagrams.net" agent="Mozilla/5.0 (Windows NT 10.0; Win64; x64) AppleWebKit/537.36 (KHTML, like Gecko) Chrome/131.0.0.0 Safari/537.36 Edg/131.0.0.0" version="24.9.1">
  <diagram name="Page-1" id="e7e014a7-5840-1c2e-5031-d8a46d1fe8dd">
    <mxGraphModel dx="1831" dy="1042" grid="0" gridSize="10" guides="1" tooltips="1" connect="1" arrows="1" fold="1" page="0" pageScale="1" pageWidth="1169" pageHeight="826" background="none" math="0" shadow="0">
      <root>
        <mxCell id="0" />
        <mxCell id="1" parent="0" />
        <mxCell id="2" value="Fachbereich   " style="swimlane;whiteSpace=wrap;labelBackgroundColor=none;fillColor=#FAE5C7;strokeColor=#0F8B8D;fontColor=#143642;" parent="1" vertex="1">
          <mxGeometry x="64" y="170" width="280" height="650" as="geometry" />
        </mxCell>
        <mxCell id="Jgl-7CiGudKZeoaPpiGy-51" value="Definiere Anforderung" style="rounded=1;whiteSpace=wrap;html=1;labelBackgroundColor=none;fillColor=#FAE5C7;strokeColor=#0F8B8D;fontColor=#143642;" parent="2" vertex="1">
          <mxGeometry x="80" y="112" width="120" height="60" as="geometry" />
        </mxCell>
        <mxCell id="Jgl-7CiGudKZeoaPpiGy-53" value="Teste Feature" style="rounded=1;whiteSpace=wrap;html=1;labelBackgroundColor=none;fillColor=#FAE5C7;strokeColor=#0F8B8D;fontColor=#143642;" parent="2" vertex="1">
          <mxGeometry x="80" y="272" width="120" height="60" as="geometry" />
        </mxCell>
        <mxCell id="Jgl-7CiGudKZeoaPpiGy-65" style="edgeStyle=orthogonalEdgeStyle;rounded=0;orthogonalLoop=1;jettySize=auto;html=1;strokeColor=#A8201A;fontColor=#143642;fillColor=#FAE5C7;" parent="2" source="Jgl-7CiGudKZeoaPpiGy-63" target="Jgl-7CiGudKZeoaPpiGy-51" edge="1">
          <mxGeometry relative="1" as="geometry" />
        </mxCell>
        <mxCell id="Jgl-7CiGudKZeoaPpiGy-63" value="" style="ellipse;html=1;shape=startState;fillColor=#000000;strokeColor=#ff0000;fontColor=#143642;" parent="2" vertex="1">
          <mxGeometry x="125" y="40" width="30" height="30" as="geometry" />
        </mxCell>
        <mxCell id="3" value="Entwickler" style="swimlane;whiteSpace=wrap;labelBackgroundColor=none;fillColor=#FAE5C7;strokeColor=#0F8B8D;fontColor=#143642;" parent="1" vertex="1">
          <mxGeometry x="344" y="170" width="280" height="650" as="geometry" />
        </mxCell>
        <mxCell id="Jgl-7CiGudKZeoaPpiGy-52" value="Programmire Feature" style="rounded=1;whiteSpace=wrap;html=1;labelBackgroundColor=none;fillColor=#FAE5C7;strokeColor=#0F8B8D;fontColor=#143642;" parent="3" vertex="1">
          <mxGeometry x="80.5" y="192" width="120" height="60" as="geometry" />
        </mxCell>
        <mxCell id="4" value="Projektleiter" style="swimlane;whiteSpace=wrap;startSize=23;labelBackgroundColor=none;fillColor=#FAE5C7;strokeColor=#0F8B8D;fontColor=#143642;" parent="1" vertex="1">
          <mxGeometry x="624" y="170" width="280" height="650" as="geometry" />
        </mxCell>
        <mxCell id="Jgl-7CiGudKZeoaPpiGy-54" value="Präsentiere Feature" style="rounded=1;whiteSpace=wrap;html=1;labelBackgroundColor=none;fillColor=#FAE5C7;strokeColor=#0F8B8D;fontColor=#143642;" parent="4" vertex="1">
          <mxGeometry x="80" y="352" width="120" height="60" as="geometry" />
        </mxCell>
        <mxCell id="Jgl-7CiGudKZeoaPpiGy-61" value="Plan Release" style="rounded=1;whiteSpace=wrap;html=1;strokeColor=#0F8B8D;fontColor=#143642;fillColor=#FAE5C7;" parent="4" vertex="1">
          <mxGeometry x="80" y="510" width="120" height="60" as="geometry" />
        </mxCell>
        <mxCell id="Jgl-7CiGudKZeoaPpiGy-48" value="Chef" style="swimlane;whiteSpace=wrap;html=1;labelBackgroundColor=none;fillColor=#FAE5C7;strokeColor=#0F8B8D;fontColor=#143642;" parent="1" vertex="1">
          <mxGeometry x="904.5" y="170" width="200" height="650" as="geometry" />
        </mxCell>
        <mxCell id="Jgl-7CiGudKZeoaPpiGy-58" value="Erhöhe Gehälter" style="rounded=1;whiteSpace=wrap;html=1;labelBackgroundColor=none;fillColor=#FAE5C7;strokeColor=#0F8B8D;fontColor=#143642;" parent="Jgl-7CiGudKZeoaPpiGy-48" vertex="1">
          <mxGeometry x="40" y="432" width="120" height="60" as="geometry" />
        </mxCell>
        <mxCell id="Jgl-7CiGudKZeoaPpiGy-55" style="edgeStyle=orthogonalEdgeStyle;rounded=0;orthogonalLoop=1;jettySize=auto;html=1;labelBackgroundColor=none;strokeColor=#A8201A;fontColor=default;" parent="1" source="Jgl-7CiGudKZeoaPpiGy-51" target="Jgl-7CiGudKZeoaPpiGy-52" edge="1">
          <mxGeometry relative="1" as="geometry">
            <Array as="points">
              <mxPoint x="203.5" y="352" />
              <mxPoint x="484.5" y="352" />
            </Array>
          </mxGeometry>
        </mxCell>
        <mxCell id="Jgl-7CiGudKZeoaPpiGy-56" style="edgeStyle=orthogonalEdgeStyle;rounded=0;orthogonalLoop=1;jettySize=auto;html=1;labelBackgroundColor=none;strokeColor=#A8201A;fontColor=default;" parent="1" source="Jgl-7CiGudKZeoaPpiGy-52" target="Jgl-7CiGudKZeoaPpiGy-53" edge="1">
          <mxGeometry relative="1" as="geometry">
            <Array as="points">
              <mxPoint x="484.5" y="432" />
              <mxPoint x="203.5" y="432" />
            </Array>
          </mxGeometry>
        </mxCell>
        <mxCell id="Jgl-7CiGudKZeoaPpiGy-57" style="edgeStyle=orthogonalEdgeStyle;rounded=0;orthogonalLoop=1;jettySize=auto;html=1;labelBackgroundColor=none;strokeColor=#A8201A;fontColor=default;" parent="1" source="Jgl-7CiGudKZeoaPpiGy-53" target="Jgl-7CiGudKZeoaPpiGy-54" edge="1">
          <mxGeometry relative="1" as="geometry">
            <Array as="points">
              <mxPoint x="203.5" y="512" />
              <mxPoint x="764.5" y="512" />
            </Array>
          </mxGeometry>
        </mxCell>
        <mxCell id="Jgl-7CiGudKZeoaPpiGy-59" style="edgeStyle=orthogonalEdgeStyle;rounded=0;orthogonalLoop=1;jettySize=auto;html=1;labelBackgroundColor=none;strokeColor=#A8201A;fontColor=default;" parent="1" source="Jgl-7CiGudKZeoaPpiGy-54" target="Jgl-7CiGudKZeoaPpiGy-58" edge="1">
          <mxGeometry relative="1" as="geometry">
            <Array as="points">
              <mxPoint x="764.5" y="592" />
              <mxPoint x="1004.5" y="592" />
            </Array>
          </mxGeometry>
        </mxCell>
        <mxCell id="Jgl-7CiGudKZeoaPpiGy-62" style="edgeStyle=orthogonalEdgeStyle;rounded=0;orthogonalLoop=1;jettySize=auto;html=1;entryX=0.5;entryY=0;entryDx=0;entryDy=0;strokeColor=#A8201A;fontColor=#143642;fillColor=#FAE5C7;" parent="1" source="Jgl-7CiGudKZeoaPpiGy-58" target="Jgl-7CiGudKZeoaPpiGy-61" edge="1">
          <mxGeometry relative="1" as="geometry">
            <Array as="points">
              <mxPoint x="1004" y="670" />
              <mxPoint x="764" y="670" />
            </Array>
          </mxGeometry>
        </mxCell>
        <mxCell id="Jgl-7CiGudKZeoaPpiGy-66" value="" style="ellipse;html=1;shape=endState;fillColor=#000000;strokeColor=#ff0000;fontColor=#143642;" parent="1" vertex="1">
          <mxGeometry x="749" y="780" width="30" height="30" as="geometry" />
        </mxCell>
        <mxCell id="Jgl-7CiGudKZeoaPpiGy-67" style="edgeStyle=orthogonalEdgeStyle;rounded=0;orthogonalLoop=1;jettySize=auto;html=1;strokeColor=#A8201A;fontColor=#143642;fillColor=#FAE5C7;" parent="1" source="Jgl-7CiGudKZeoaPpiGy-61" target="Jgl-7CiGudKZeoaPpiGy-66" edge="1">
          <mxGeometry relative="1" as="geometry" />
        </mxCell>
        <mxCell id="Jgl-7CiGudKZeoaPpiGy-68" value="&lt;b&gt;SwimLanes&lt;/b&gt;" style="text;html=1;align=center;verticalAlign=middle;resizable=0;points=[];autosize=1;strokeColor=none;fillColor=none;fontColor=#143642;" parent="1" vertex="1">
          <mxGeometry x="539" y="120" width="90" height="30" as="geometry" />
        </mxCell>
        <mxCell id="Jgl-7CiGudKZeoaPpiGy-69" value="Fachbereich   " style="swimlane;whiteSpace=wrap;labelBackgroundColor=none;fillColor=#FAE5C7;strokeColor=#0F8B8D;fontColor=#143642;" parent="1" vertex="1">
          <mxGeometry x="64" y="1030" width="280" height="890" as="geometry" />
        </mxCell>
        <mxCell id="Jgl-7CiGudKZeoaPpiGy-70" value="Definiere Anforderung" style="rounded=1;whiteSpace=wrap;html=1;labelBackgroundColor=none;fillColor=#FAE5C7;strokeColor=#0F8B8D;fontColor=#143642;" parent="Jgl-7CiGudKZeoaPpiGy-69" vertex="1">
          <mxGeometry x="80" y="112" width="120" height="60" as="geometry" />
        </mxCell>
        <mxCell id="Jgl-7CiGudKZeoaPpiGy-91" style="edgeStyle=orthogonalEdgeStyle;rounded=0;orthogonalLoop=1;jettySize=auto;html=1;strokeColor=#A8201A;fontColor=#143642;fillColor=#FAE5C7;" parent="Jgl-7CiGudKZeoaPpiGy-69" source="Jgl-7CiGudKZeoaPpiGy-71" target="Jgl-7CiGudKZeoaPpiGy-90" edge="1">
          <mxGeometry relative="1" as="geometry" />
        </mxCell>
        <mxCell id="Jgl-7CiGudKZeoaPpiGy-71" value="Teste Feature" style="rounded=1;whiteSpace=wrap;html=1;labelBackgroundColor=none;fillColor=#FAE5C7;strokeColor=#0F8B8D;fontColor=#143642;" parent="Jgl-7CiGudKZeoaPpiGy-69" vertex="1">
          <mxGeometry x="80" y="272" width="120" height="60" as="geometry" />
        </mxCell>
        <mxCell id="Jgl-7CiGudKZeoaPpiGy-72" style="edgeStyle=orthogonalEdgeStyle;rounded=0;orthogonalLoop=1;jettySize=auto;html=1;strokeColor=#A8201A;fontColor=#143642;fillColor=#FAE5C7;" parent="Jgl-7CiGudKZeoaPpiGy-69" source="Jgl-7CiGudKZeoaPpiGy-73" target="Jgl-7CiGudKZeoaPpiGy-70" edge="1">
          <mxGeometry relative="1" as="geometry" />
        </mxCell>
        <mxCell id="Jgl-7CiGudKZeoaPpiGy-73" value="" style="ellipse;html=1;shape=startState;fillColor=#000000;strokeColor=#ff0000;fontColor=#143642;" parent="Jgl-7CiGudKZeoaPpiGy-69" vertex="1">
          <mxGeometry x="125" y="40" width="30" height="30" as="geometry" />
        </mxCell>
        <mxCell id="Jgl-7CiGudKZeoaPpiGy-90" value="" style="verticalLabelPosition=bottom;verticalAlign=top;html=1;shape=hexagon;perimeter=hexagonPerimeter2;arcSize=6;size=0.26;strokeColor=#0F8B8D;fontColor=#143642;fillColor=#FAE5C7;" parent="Jgl-7CiGudKZeoaPpiGy-69" vertex="1">
          <mxGeometry x="55" y="365" width="170" height="60" as="geometry" />
        </mxCell>
        <mxCell id="Jgl-7CiGudKZeoaPpiGy-93" value="Weitere Anforderungen" style="text;html=1;align=center;verticalAlign=middle;resizable=0;points=[];autosize=1;strokeColor=none;fillColor=none;fontColor=#143642;" parent="Jgl-7CiGudKZeoaPpiGy-69" vertex="1">
          <mxGeometry x="65" y="380" width="150" height="30" as="geometry" />
        </mxCell>
        <mxCell id="Jgl-7CiGudKZeoaPpiGy-126" value="Plant nächstes Projekt" style="rounded=1;whiteSpace=wrap;html=1;strokeColor=#0F8B8D;fontColor=#143642;fillColor=#FAE5C7;" parent="Jgl-7CiGudKZeoaPpiGy-69" vertex="1">
          <mxGeometry x="70" y="670" width="140" height="60" as="geometry" />
        </mxCell>
        <mxCell id="Jgl-7CiGudKZeoaPpiGy-131" value="" style="line;strokeWidth=5;fillColor=none;align=left;verticalAlign=middle;spacingTop=-1;spacingLeft=3;spacingRight=3;rotatable=0;labelPosition=right;points=[];portConstraint=eastwest;strokeColor=inherit;fontColor=#143642;shadow=1;" parent="Jgl-7CiGudKZeoaPpiGy-69" vertex="1">
          <mxGeometry y="790" width="280" height="10" as="geometry" />
        </mxCell>
        <mxCell id="Jgl-7CiGudKZeoaPpiGy-86" value="" style="ellipse;html=1;shape=endState;fillColor=#000000;strokeColor=#ff0000;fontColor=#143642;" parent="Jgl-7CiGudKZeoaPpiGy-69" vertex="1">
          <mxGeometry x="125" y="850" width="30" height="30" as="geometry" />
        </mxCell>
        <mxCell id="Jgl-7CiGudKZeoaPpiGy-132" style="edgeStyle=orthogonalEdgeStyle;rounded=0;orthogonalLoop=1;jettySize=auto;html=1;entryX=0.5;entryY=0;entryDx=0;entryDy=0;strokeColor=#A8201A;fontColor=#143642;fillColor=#FAE5C7;" parent="Jgl-7CiGudKZeoaPpiGy-69" source="Jgl-7CiGudKZeoaPpiGy-131" target="Jgl-7CiGudKZeoaPpiGy-86" edge="1">
          <mxGeometry relative="1" as="geometry">
            <Array as="points">
              <mxPoint x="140" y="830" />
              <mxPoint x="140" y="830" />
            </Array>
          </mxGeometry>
        </mxCell>
        <mxCell id="Jgl-7CiGudKZeoaPpiGy-142" style="edgeStyle=orthogonalEdgeStyle;rounded=0;orthogonalLoop=1;jettySize=auto;html=1;entryX=0.054;entryY=0.43;entryDx=0;entryDy=0;entryPerimeter=0;strokeColor=#A8201A;fontColor=#143642;fillColor=#FAE5C7;" parent="Jgl-7CiGudKZeoaPpiGy-69" source="Jgl-7CiGudKZeoaPpiGy-126" target="Jgl-7CiGudKZeoaPpiGy-131" edge="1">
          <mxGeometry relative="1" as="geometry">
            <Array as="points">
              <mxPoint x="140" y="760" />
              <mxPoint x="15" y="760" />
            </Array>
          </mxGeometry>
        </mxCell>
        <mxCell id="Jgl-7CiGudKZeoaPpiGy-74" value="Entwickler" style="swimlane;whiteSpace=wrap;labelBackgroundColor=none;fillColor=#FAE5C7;strokeColor=#0F8B8D;fontColor=#143642;" parent="1" vertex="1">
          <mxGeometry x="344" y="1030" width="280" height="890" as="geometry" />
        </mxCell>
        <mxCell id="Jgl-7CiGudKZeoaPpiGy-75" value="Programmire Feature" style="rounded=1;whiteSpace=wrap;html=1;labelBackgroundColor=none;fillColor=#FAE5C7;strokeColor=#0F8B8D;fontColor=#143642;" parent="Jgl-7CiGudKZeoaPpiGy-74" vertex="1">
          <mxGeometry x="80.5" y="192" width="120" height="60" as="geometry" />
        </mxCell>
        <mxCell id="Jgl-7CiGudKZeoaPpiGy-98" style="edgeStyle=orthogonalEdgeStyle;rounded=0;orthogonalLoop=1;jettySize=auto;html=1;strokeColor=#A8201A;fontColor=#143642;fillColor=#FAE5C7;" parent="Jgl-7CiGudKZeoaPpiGy-74" source="Jgl-7CiGudKZeoaPpiGy-95" target="Jgl-7CiGudKZeoaPpiGy-75" edge="1">
          <mxGeometry relative="1" as="geometry" />
        </mxCell>
        <mxCell id="Jgl-7CiGudKZeoaPpiGy-95" value="" style="strokeWidth=2;html=1;shape=mxgraph.flowchart.decision;whiteSpace=wrap;strokeColor=#0F8B8D;fontColor=#143642;fillColor=#FAE5C7;" parent="Jgl-7CiGudKZeoaPpiGy-74" vertex="1">
          <mxGeometry x="115" y="110" width="50" height="40" as="geometry" />
        </mxCell>
        <mxCell id="Jgl-7CiGudKZeoaPpiGy-136" style="edgeStyle=orthogonalEdgeStyle;rounded=0;orthogonalLoop=1;jettySize=auto;html=1;entryX=0.5;entryY=0;entryDx=0;entryDy=0;strokeColor=#A8201A;fontColor=#143642;fillColor=#FAE5C7;" parent="Jgl-7CiGudKZeoaPpiGy-74" source="Jgl-7CiGudKZeoaPpiGy-128" target="Jgl-7CiGudKZeoaPpiGy-78" edge="1">
          <mxGeometry relative="1" as="geometry" />
        </mxCell>
        <mxCell id="Jgl-7CiGudKZeoaPpiGy-128" value="Erzeuge Artefakte" style="rounded=1;whiteSpace=wrap;html=1;strokeColor=#0F8B8D;fontColor=#143642;fillColor=#FAE5C7;" parent="Jgl-7CiGudKZeoaPpiGy-74" vertex="1">
          <mxGeometry x="80.5" y="622" width="120" height="60" as="geometry" />
        </mxCell>
        <mxCell id="Jgl-7CiGudKZeoaPpiGy-78" value="Liefern Produkt aus" style="rounded=1;whiteSpace=wrap;html=1;strokeColor=#0F8B8D;fontColor=#143642;fillColor=#FAE5C7;" parent="Jgl-7CiGudKZeoaPpiGy-74" vertex="1">
          <mxGeometry x="80.5" y="700" width="120" height="60" as="geometry" />
        </mxCell>
        <mxCell id="Jgl-7CiGudKZeoaPpiGy-76" value="Projektleiter" style="swimlane;whiteSpace=wrap;startSize=23;labelBackgroundColor=none;fillColor=#FAE5C7;strokeColor=#0F8B8D;fontColor=#143642;" parent="1" vertex="1">
          <mxGeometry x="624" y="1030" width="280" height="890" as="geometry" />
        </mxCell>
        <mxCell id="Jgl-7CiGudKZeoaPpiGy-77" value="Präsentiere Feature" style="rounded=1;whiteSpace=wrap;html=1;labelBackgroundColor=none;fillColor=#FAE5C7;strokeColor=#0F8B8D;fontColor=#143642;" parent="Jgl-7CiGudKZeoaPpiGy-76" vertex="1">
          <mxGeometry x="80" y="280" width="120" height="60" as="geometry" />
        </mxCell>
        <mxCell id="Jgl-7CiGudKZeoaPpiGy-127" value="Plan Release" style="rounded=1;whiteSpace=wrap;html=1;strokeColor=#0F8B8D;fontColor=#143642;fillColor=#FAE5C7;" parent="Jgl-7CiGudKZeoaPpiGy-76" vertex="1">
          <mxGeometry x="80" y="670" width="120" height="60" as="geometry" />
        </mxCell>
        <mxCell id="Jgl-7CiGudKZeoaPpiGy-79" value="Chef" style="swimlane;whiteSpace=wrap;html=1;labelBackgroundColor=none;fillColor=#FAE5C7;strokeColor=#0F8B8D;fontColor=#143642;" parent="1" vertex="1">
          <mxGeometry x="904.5" y="1030" width="320" height="890" as="geometry" />
        </mxCell>
        <mxCell id="Jgl-7CiGudKZeoaPpiGy-80" value="Erhöhe Gehälter" style="rounded=1;whiteSpace=wrap;html=1;labelBackgroundColor=none;fillColor=#FAE5C7;strokeColor=#0F8B8D;fontColor=#143642;" parent="Jgl-7CiGudKZeoaPpiGy-79" vertex="1">
          <mxGeometry x="17.75" y="410" width="100" height="38" as="geometry" />
        </mxCell>
        <mxCell id="Jgl-7CiGudKZeoaPpiGy-114" style="edgeStyle=orthogonalEdgeStyle;rounded=0;orthogonalLoop=1;jettySize=auto;html=1;entryX=0.5;entryY=0;entryDx=0;entryDy=0;strokeColor=#A8201A;fontColor=#143642;fillColor=#FAE5C7;" parent="Jgl-7CiGudKZeoaPpiGy-79" source="Jgl-7CiGudKZeoaPpiGy-105" target="Jgl-7CiGudKZeoaPpiGy-80" edge="1">
          <mxGeometry relative="1" as="geometry" />
        </mxCell>
        <mxCell id="Jgl-7CiGudKZeoaPpiGy-124" value="ja" style="edgeLabel;html=1;align=center;verticalAlign=middle;resizable=0;points=[];strokeColor=#0F8B8D;fontColor=#143642;fillColor=#FAE5C7;" parent="Jgl-7CiGudKZeoaPpiGy-114" vertex="1" connectable="0">
          <mxGeometry x="0.0458" y="1" relative="1" as="geometry">
            <mxPoint x="-1" as="offset" />
          </mxGeometry>
        </mxCell>
        <mxCell id="Jgl-7CiGudKZeoaPpiGy-115" style="edgeStyle=orthogonalEdgeStyle;rounded=0;orthogonalLoop=1;jettySize=auto;html=1;entryX=0.5;entryY=0;entryDx=0;entryDy=0;strokeColor=#A8201A;fontColor=#143642;fillColor=#FAE5C7;" parent="Jgl-7CiGudKZeoaPpiGy-79" source="Jgl-7CiGudKZeoaPpiGy-105" target="Jgl-7CiGudKZeoaPpiGy-108" edge="1">
          <mxGeometry relative="1" as="geometry" />
        </mxCell>
        <mxCell id="Jgl-7CiGudKZeoaPpiGy-125" value="nein" style="edgeLabel;html=1;align=center;verticalAlign=middle;resizable=0;points=[];strokeColor=#0F8B8D;fontColor=#143642;fillColor=#FAE5C7;" parent="Jgl-7CiGudKZeoaPpiGy-115" vertex="1" connectable="0">
          <mxGeometry x="0.0242" y="2" relative="1" as="geometry">
            <mxPoint x="-1" as="offset" />
          </mxGeometry>
        </mxCell>
        <mxCell id="Jgl-7CiGudKZeoaPpiGy-105" value="" style="verticalLabelPosition=bottom;verticalAlign=top;html=1;shape=hexagon;perimeter=hexagonPerimeter2;arcSize=6;size=0.26;strokeColor=#0F8B8D;fontColor=#143642;fillColor=#FAE5C7;" parent="Jgl-7CiGudKZeoaPpiGy-79" vertex="1">
          <mxGeometry x="90.25" y="332" width="135" height="38" as="geometry" />
        </mxCell>
        <mxCell id="Jgl-7CiGudKZeoaPpiGy-106" value="Zufrieden?" style="text;html=1;align=center;verticalAlign=middle;resizable=0;points=[];autosize=1;strokeColor=none;fillColor=none;fontColor=#143642;" parent="Jgl-7CiGudKZeoaPpiGy-79" vertex="1">
          <mxGeometry x="117.75" y="336" width="80" height="30" as="geometry" />
        </mxCell>
        <mxCell id="Jgl-7CiGudKZeoaPpiGy-108" value="Kürze Gehälter" style="rounded=1;whiteSpace=wrap;html=1;labelBackgroundColor=none;fillColor=#FAE5C7;strokeColor=#0F8B8D;fontColor=#143642;" parent="Jgl-7CiGudKZeoaPpiGy-79" vertex="1">
          <mxGeometry x="197.75" y="410" width="100" height="38" as="geometry" />
        </mxCell>
        <mxCell id="Jgl-7CiGudKZeoaPpiGy-116" value="" style="strokeWidth=2;html=1;shape=mxgraph.flowchart.decision;whiteSpace=wrap;strokeColor=#0F8B8D;fontColor=#143642;fillColor=#FAE5C7;" parent="Jgl-7CiGudKZeoaPpiGy-79" vertex="1">
          <mxGeometry x="140" y="490" width="42.75" height="40" as="geometry" />
        </mxCell>
        <mxCell id="Jgl-7CiGudKZeoaPpiGy-118" style="edgeStyle=orthogonalEdgeStyle;rounded=0;orthogonalLoop=1;jettySize=auto;html=1;entryX=0;entryY=0.5;entryDx=0;entryDy=0;entryPerimeter=0;strokeColor=#A8201A;fontColor=#143642;fillColor=#FAE5C7;" parent="Jgl-7CiGudKZeoaPpiGy-79" source="Jgl-7CiGudKZeoaPpiGy-80" target="Jgl-7CiGudKZeoaPpiGy-116" edge="1">
          <mxGeometry relative="1" as="geometry">
            <Array as="points">
              <mxPoint x="68" y="510" />
            </Array>
          </mxGeometry>
        </mxCell>
        <mxCell id="Jgl-7CiGudKZeoaPpiGy-120" style="edgeStyle=orthogonalEdgeStyle;rounded=0;orthogonalLoop=1;jettySize=auto;html=1;entryX=1;entryY=0.5;entryDx=0;entryDy=0;entryPerimeter=0;strokeColor=#A8201A;fontColor=#143642;fillColor=#FAE5C7;" parent="Jgl-7CiGudKZeoaPpiGy-79" source="Jgl-7CiGudKZeoaPpiGy-108" target="Jgl-7CiGudKZeoaPpiGy-116" edge="1">
          <mxGeometry relative="1" as="geometry">
            <Array as="points">
              <mxPoint x="248" y="510" />
            </Array>
          </mxGeometry>
        </mxCell>
        <mxCell id="Jgl-7CiGudKZeoaPpiGy-121" value="" style="line;strokeWidth=5;fillColor=#000000;align=left;verticalAlign=middle;spacingTop=-1;spacingLeft=3;spacingRight=3;rotatable=0;labelPosition=right;points=[];portConstraint=eastwest;strokeColor=inherit;fontColor=#143642;shadow=1;" parent="Jgl-7CiGudKZeoaPpiGy-79" vertex="1">
          <mxGeometry y="550" width="320" height="8" as="geometry" />
        </mxCell>
        <mxCell id="Jgl-7CiGudKZeoaPpiGy-123" style="edgeStyle=orthogonalEdgeStyle;rounded=0;orthogonalLoop=1;jettySize=auto;html=1;entryX=0.504;entryY=0;entryDx=0;entryDy=0;entryPerimeter=0;strokeColor=#A8201A;fontColor=#143642;fillColor=#FAE5C7;" parent="Jgl-7CiGudKZeoaPpiGy-79" source="Jgl-7CiGudKZeoaPpiGy-116" target="Jgl-7CiGudKZeoaPpiGy-121" edge="1">
          <mxGeometry relative="1" as="geometry" />
        </mxCell>
        <mxCell id="Jgl-7CiGudKZeoaPpiGy-82" style="edgeStyle=orthogonalEdgeStyle;rounded=0;orthogonalLoop=1;jettySize=auto;html=1;labelBackgroundColor=none;strokeColor=#A8201A;fontColor=default;" parent="1" source="Jgl-7CiGudKZeoaPpiGy-75" target="Jgl-7CiGudKZeoaPpiGy-71" edge="1">
          <mxGeometry relative="1" as="geometry">
            <Array as="points">
              <mxPoint x="484.5" y="1292" />
              <mxPoint x="203.5" y="1292" />
            </Array>
          </mxGeometry>
        </mxCell>
        <mxCell id="Jgl-7CiGudKZeoaPpiGy-88" value="&lt;b&gt;&lt;font style=&quot;font-size: 18px;&quot;&gt;SwimLanes mit schleifen und oder verzweigungen&lt;/font&gt;&lt;/b&gt;" style="text;html=1;align=center;verticalAlign=middle;resizable=0;points=[];autosize=1;strokeColor=none;fillColor=none;fontColor=#143642;" parent="1" vertex="1">
          <mxGeometry x="359" y="975" width="450" height="40" as="geometry" />
        </mxCell>
        <mxCell id="Jgl-7CiGudKZeoaPpiGy-96" style="edgeStyle=orthogonalEdgeStyle;rounded=0;orthogonalLoop=1;jettySize=auto;html=1;entryX=0;entryY=0.5;entryDx=0;entryDy=0;entryPerimeter=0;strokeColor=#A8201A;fontColor=#143642;fillColor=#FAE5C7;endSize=6;jumpSize=10;targetPerimeterSpacing=0;" parent="1" source="Jgl-7CiGudKZeoaPpiGy-90" target="Jgl-7CiGudKZeoaPpiGy-95" edge="1">
          <mxGeometry relative="1" as="geometry" />
        </mxCell>
        <mxCell id="Jgl-7CiGudKZeoaPpiGy-99" value="ja" style="edgeLabel;html=1;align=center;verticalAlign=middle;resizable=0;points=[];strokeColor=#0F8B8D;fontColor=#143642;fillColor=#FAE5C7;" parent="Jgl-7CiGudKZeoaPpiGy-96" vertex="1" connectable="0">
          <mxGeometry x="-0.8292" relative="1" as="geometry">
            <mxPoint as="offset" />
          </mxGeometry>
        </mxCell>
        <mxCell id="Jgl-7CiGudKZeoaPpiGy-97" style="edgeStyle=orthogonalEdgeStyle;rounded=0;orthogonalLoop=1;jettySize=auto;html=1;entryX=0.5;entryY=0;entryDx=0;entryDy=0;entryPerimeter=0;strokeColor=#A8201A;fontColor=#143642;fillColor=#FAE5C7;" parent="1" source="Jgl-7CiGudKZeoaPpiGy-70" target="Jgl-7CiGudKZeoaPpiGy-95" edge="1">
          <mxGeometry relative="1" as="geometry" />
        </mxCell>
        <mxCell id="Jgl-7CiGudKZeoaPpiGy-102" style="edgeStyle=orthogonalEdgeStyle;rounded=0;orthogonalLoop=1;jettySize=auto;html=1;entryX=0.5;entryY=0;entryDx=0;entryDy=0;strokeColor=#A8201A;fontColor=#143642;fillColor=#FAE5C7;" parent="1" source="Jgl-7CiGudKZeoaPpiGy-90" target="Jgl-7CiGudKZeoaPpiGy-77" edge="1">
          <mxGeometry relative="1" as="geometry">
            <Array as="points">
              <mxPoint x="204" y="1460" />
              <mxPoint x="512" y="1460" />
              <mxPoint x="512" y="1290" />
              <mxPoint x="764" y="1290" />
              <mxPoint x="764" y="1300" />
            </Array>
          </mxGeometry>
        </mxCell>
        <mxCell id="Jgl-7CiGudKZeoaPpiGy-103" value="nein" style="edgeLabel;html=1;align=center;verticalAlign=middle;resizable=0;points=[];strokeColor=#0F8B8D;fontColor=#143642;fillColor=#FAE5C7;" parent="Jgl-7CiGudKZeoaPpiGy-102" vertex="1" connectable="0">
          <mxGeometry x="-0.5364" y="2" relative="1" as="geometry">
            <mxPoint as="offset" />
          </mxGeometry>
        </mxCell>
        <mxCell id="Jgl-7CiGudKZeoaPpiGy-107" style="edgeStyle=orthogonalEdgeStyle;rounded=0;orthogonalLoop=1;jettySize=auto;html=1;strokeColor=#A8201A;fontColor=#143642;fillColor=#FAE5C7;entryX=0.5;entryY=0;entryDx=0;entryDy=0;" parent="1" source="Jgl-7CiGudKZeoaPpiGy-77" target="Jgl-7CiGudKZeoaPpiGy-105" edge="1">
          <mxGeometry relative="1" as="geometry">
            <mxPoint x="970" y="1350" as="targetPoint" />
          </mxGeometry>
        </mxCell>
        <mxCell id="Jgl-7CiGudKZeoaPpiGy-133" style="edgeStyle=orthogonalEdgeStyle;rounded=0;orthogonalLoop=1;jettySize=auto;html=1;strokeColor=#A8201A;fontColor=#143642;fillColor=#FAE5C7;" parent="1" source="Jgl-7CiGudKZeoaPpiGy-121" target="Jgl-7CiGudKZeoaPpiGy-128" edge="1">
          <mxGeometry relative="1" as="geometry">
            <Array as="points">
              <mxPoint x="1064" y="1640" />
              <mxPoint x="484" y="1640" />
            </Array>
          </mxGeometry>
        </mxCell>
        <mxCell id="Jgl-7CiGudKZeoaPpiGy-134" style="edgeStyle=orthogonalEdgeStyle;rounded=0;orthogonalLoop=1;jettySize=auto;html=1;entryX=0.5;entryY=0;entryDx=0;entryDy=0;strokeColor=#A8201A;fontColor=#143642;fillColor=#FAE5C7;" parent="1" source="Jgl-7CiGudKZeoaPpiGy-121" target="Jgl-7CiGudKZeoaPpiGy-126" edge="1">
          <mxGeometry relative="1" as="geometry">
            <Array as="points">
              <mxPoint x="1064" y="1640" />
              <mxPoint x="204" y="1640" />
            </Array>
          </mxGeometry>
        </mxCell>
        <mxCell id="Jgl-7CiGudKZeoaPpiGy-135" style="edgeStyle=orthogonalEdgeStyle;rounded=0;orthogonalLoop=1;jettySize=auto;html=1;entryX=0.5;entryY=0;entryDx=0;entryDy=0;strokeColor=#A8201A;fontColor=#143642;fillColor=#FAE5C7;" parent="1" source="Jgl-7CiGudKZeoaPpiGy-121" target="Jgl-7CiGudKZeoaPpiGy-127" edge="1">
          <mxGeometry relative="1" as="geometry">
            <Array as="points">
              <mxPoint x="1064" y="1640" />
              <mxPoint x="764" y="1640" />
            </Array>
          </mxGeometry>
        </mxCell>
        <mxCell id="Jgl-7CiGudKZeoaPpiGy-139" style="edgeStyle=orthogonalEdgeStyle;rounded=0;orthogonalLoop=1;jettySize=auto;html=1;entryX=0.965;entryY=0.678;entryDx=0;entryDy=0;entryPerimeter=0;strokeColor=#A8201A;fontColor=#143642;fillColor=#FAE5C7;" parent="1" source="Jgl-7CiGudKZeoaPpiGy-127" target="Jgl-7CiGudKZeoaPpiGy-131" edge="1">
          <mxGeometry relative="1" as="geometry">
            <Array as="points">
              <mxPoint x="764" y="1810" />
              <mxPoint x="334" y="1810" />
            </Array>
          </mxGeometry>
        </mxCell>
        <mxCell id="Jgl-7CiGudKZeoaPpiGy-143" style="edgeStyle=orthogonalEdgeStyle;rounded=0;orthogonalLoop=1;jettySize=auto;html=1;entryX=0.589;entryY=0.48;entryDx=0;entryDy=0;entryPerimeter=0;strokeColor=#A8201A;fontColor=#143642;fillColor=#FAE5C7;" parent="1" source="Jgl-7CiGudKZeoaPpiGy-78" target="Jgl-7CiGudKZeoaPpiGy-131" edge="1">
          <mxGeometry relative="1" as="geometry">
            <Array as="points">
              <mxPoint x="229" y="1770" />
            </Array>
          </mxGeometry>
        </mxCell>
      </root>
    </mxGraphModel>
  </diagram>
</mxfile>
